<svg version="1.1" xmlns="http://www.w3.org/2000/svg" xmlns:xlink="http://www.w3.org/1999/xlink" width="200" height="200" viewBox="-90.40924,183.785,593.31848,469.43"><g fill="#252336" fill-rule="nonzero" stroke="none" stroke-width="none" stroke-linecap="round" stroke-linejoin="round" stroke-miterlimit="10" stroke-dasharray="" stroke-dashoffset="0" font-family="none" font-weight="none" font-size="none" text-anchor="none" style="mix-blend-mode: normal"><path d="M177.26659,252.92318v283.56336c0,14.5433 -14.5433,29.0866 -29.0866,29.0866h-7.74846c-14.5433,0 -29.0866,-14.5433 -29.0866,-29.0866v-283.56336v-66.84203c10.76963,-1.51352 21.77383,-2.29615 32.96083,-2.29615c11.18699,0 22.19119,0.78264 32.96083,2.29615c114.02375,16.02434 201.75417,113.97632 201.75417,232.41885c0,129.62951 -105.08549,234.715 -234.715,234.715c-129.62951,0 -234.715,-105.08549 -234.715,-234.715c0,-96.31415 58.01165,-179.07897 140.99965,-215.25914c4.03359,-1.76001 8.57847,-2.64506 13.26052,-2.64506c18.20376,0 32.96083,14.75706 32.96083,32.96083c0,12.61613 -7.0881,23.57674 -17.49924,29.11678c-60.95942,25.45492 -103.80011,85.63777 -103.80011,155.82659c0,93.22199 75.57136,168.79335 168.79335,168.79335c93.22199,0 168.79335,-75.57136 168.79335,-168.79335c0,-81.94244 -58.38997,-150.24718 -135.83252,-165.57681z" id="Path 1" stroke-width="0" /><path d="M191.50689,417.51929c0,-15.99007 15.99007,-31.98014 31.98014,-31.98014h42.93013c16.22368,0 32.44735,16.22368 32.44735,32.44735v1.02695c0,16.22368 -16.22368,32.44735 -32.44735,32.44735h-42.93013c-15.99007,0 -31.98014,-15.99007 -31.98014,-31.98014z" id="Path 1" stroke-width="0" /><path d="M467.81377,577.63442c-15.6631,0 -31.32619,-15.6631 -31.32619,-31.32619v-254.83389c0,-16.05438 16.05438,-32.10877 32.10877,-32.10877h1.70412c16.05438,0 32.10877,16.05438 32.10877,32.10877v254.83389c0,15.6631 -15.6631,31.32619 -31.32619,31.32619z" id="Path 1" stroke-width="1" /></g></svg>